<svg xmlns="http://www.w3.org/2000/svg" width="106.364" height="94.188" viewBox="0 0 106.364 94.188">
  <g id="Logo" transform="translate(-20.496 -13.403)">
    <g id="Cart" transform="translate(21 26.407)">
      <path id="Path_1" data-name="Path 1" d="M85.856,186.987l54.326-.083q6.383-19.176,12.763-38.347l-75.692.083q-3.844-7.784-7.687-15.565l-9.626-.166q.028,3.346.055,6.689,2.8.018,5.595.031,9.415,20.287,18.828,40.571a11.707,11.707,0,0,0,.421,23.28q23.522.06,47.048.126.055-3.383.111-6.768l-46-.028a4.912,4.912,0,0,1-.138-9.822Zm9-6.59h-3.4q-2.217-5.139-4.43-10.271h7.832Zm32.924-25.286q8.093.078,16.185.163l-3.548,10.207H127.782Zm0,15.015h11.051L135.516,180.4h-7.734Zm-13.746-15.015h9.11V165.48h-9.11Zm0,15.015h9.11V180.4h-9.11ZM99.8,155.111h9.558V165.48H99.8Zm0,15.015h9.558V180.4H99.8ZM79.874,155.191q7.544-.041,15.089-.08.1,5.139.2,10.277l-10.406.092Q82.315,160.337,79.874,155.191Z" transform="translate(-59.94 -132.91)" fill="#fff" stroke="#707070" stroke-width="1"/>
      <circle id="Ellipse_1" data-name="Ellipse 1" cx="5.019" cy="5.019" r="5.019" transform="translate(25.381 70.645)" fill="#fff" stroke="#707070" stroke-width="1"/>
      <circle id="Ellipse_2" data-name="Ellipse 2" cx="5.019" cy="5.019" r="5.019" transform="translate(58.394 70.645)" fill="#fff" stroke="#707070" stroke-width="1"/>
    </g>
    <g id="Grocery_items" data-name="Grocery items" transform="translate(38.163 13.909)">
      <path id="Path_2" data-name="Path 2" d="M116.006,152.9a6.061,6.061,0,0,1-.192-1.916c.113-1.785.963-2.056,1.054-3.545.1-1.552-.8-1.767-.671-3.641a3.389,3.389,0,0,1,.766-2.2,2.614,2.614,0,0,1,2.108-.862c.2.034.5.123,1.437.958,1.133,1.008,1.179,1.31,1.82,1.82.828.659,1.168.489,2.587,1.15a8.271,8.271,0,0,1,2.778,1.82c1.593,2.008-.393,5.945-.669,6.478Z" transform="translate(-115.803 -125.813)" fill="#b4d21e" stroke="#707070" stroke-width="1"/>
      <path id="Path_3" data-name="Path 3" d="M163.606,149.234a7.725,7.725,0,0,1-.779,3.586l-15.534.113a7.777,7.777,0,0,1-.836-3.7c.132-3.777,3.338-8.575,8.575-8.575S163.471,145.475,163.606,149.234Z" transform="translate(-137.035 -125.78)" fill="#ec3a3a" stroke="#707070" stroke-width="1"/>
      <path id="Path_4" data-name="Path 4" d="M203.157,155.67a28.026,28.026,0,0,1,2.448-7.157c1.207-2.392,2.019-3.108,2.917-3.478a4.114,4.114,0,0,1,3.737.288c1.482,1.1,1.4,3.144,1.38,3.723-.043,1.109-.553,2.132-1.571,4.134-.56,1.1-1.074,1.985-1.437,2.587Z" transform="translate(-176.318 -128.583)" fill="#fa7f2f" stroke="#707070" stroke-width="1"/>
      <path id="Path_5" data-name="Path 5" d="M243.1,92.276q.044,6.613.089,13.227a5.672,5.672,0,0,0-4.039,4.483v9.5l11.807-.222q-.067-4.749-.133-9.5a5.477,5.477,0,0,0-3.906-4.261q-.022-6.635-.045-13.271Z" transform="translate(-201.254 -92.231)" fill="#b81c2d" stroke="#707070" stroke-width="1"/>
      <path id="Path_6" data-name="Path 6" d="M292.533,147.167a3.362,3.362,0,0,0-.8-2.13,3.473,3.473,0,0,0-2.251-.818,29.209,29.209,0,0,0-5.073-.114,12.9,12.9,0,0,1,1.2,6.081,15.573,15.573,0,0,0-3.2-5.859l-2.042.266a8.978,8.978,0,0,1,1.287,6.214,10.557,10.557,0,0,0-3.151-5.415l-2.486.488a21.375,21.375,0,0,1,.977,5.77,10.4,10.4,0,0,0-2.486-5.193l-2.974.976a10.257,10.257,0,0,1,1.021,6.081,11.513,11.513,0,0,0-2.486-5.415l-3.151,1.42a7.047,7.047,0,0,1,1.065,5.717,8.6,8.6,0,0,0-2.707-4.652,11.541,11.541,0,0,0-5.326,4.572l22.148.222C288.333,152.508,292.628,149.3,292.533,147.167Z" transform="translate(-215.665 -128.126)" fill="#ae6f4a" stroke="#707070" stroke-width="1"/>
      <path id="Path_7" data-name="Path 7" d="M291.4,101.332l4.128,1.82-1.332,3.64,2.086,5.1-.888,1.953a26.674,26.674,0,0,0-15.357,5.371l4.838-12.028,5.193-1.953Z" transform="translate(-229.576 -98.536)" fill="#5194d1" stroke="#707070" stroke-width="1"/>
      <path id="Path_8" data-name="Path 8" d="M165.94,110.578a5.67,5.67,0,0,0-.755,2.752c-.015,3.145,2.779,5.051,3.063,5.238a6.934,6.934,0,0,0-2.308-7.989Z" transform="translate(-150.013 -104.941)" fill="#76c52d" stroke="#707070" stroke-width="1"/>
      <path id="Path_9" data-name="Path 9" d="M228.75,127.314c.083-4.7.237-6.12.4-6.125.216-.006.384,2.51.888,2.53.307.012.4-.9,1.11-1.864a5.142,5.142,0,0,1,2.042-1.6,3.742,3.742,0,0,1,.089,3.018c-.429.826-1.242,1.21-1.154,1.376.161.306,2.872-1.064,3.107-.71.162.244-.84,1.326-4.35,4.128Z" transform="translate(-194.048 -111.646)" fill="#76c52d" stroke="#707070" stroke-width="1"/>
      <path id="Path_10" data-name="Path 10" d="M339.265,161.385l7.723-2.308a12.468,12.468,0,0,1,9.9-5.593l-.089,2.353a25.813,25.813,0,0,0-4.039,1.065c-1.375.485-3.548,1.381-3.462,1.686.04.141.572.2,2.841-.177a6.721,6.721,0,0,1,6.658-1.2q-.067,2.22-.133,4.438l-2.352-2.574-1.154,3.95a15.369,15.369,0,0,0-2.619-1.243c-2.934-1.066-5.522-.982-8.611-.851A43.1,43.1,0,0,0,339.265,161.385Z" transform="translate(-270.609 -134.665)" fill="#74cf28" stroke="#707070" stroke-width="1"/>
    </g>
  </g>
</svg>
